<?xml version="1.0" encoding="UTF-8" standalone="no"?>
<!-- Created with Inkscape (http://www.inkscape.org/) -->

<svg
   xmlns:dc="http://purl.org/dc/elements/1.1/"
   xmlns:cc="http://creativecommons.org/ns#"
   xmlns:rdf="http://www.w3.org/1999/02/22-rdf-syntax-ns#"
   xmlns:svg="http://www.w3.org/2000/svg"
   xmlns="http://www.w3.org/2000/svg"
   xmlns:sodipodi="http://sodipodi.sourceforge.net/DTD/sodipodi-0.dtd"
   xmlns:inkscape="http://www.inkscape.org/namespaces/inkscape"
   id="svg4156"
   version="1.1"
   inkscape:version="0.91 r13725"
   width="405"
   height="718.125"
   viewBox="0 0 405 718.125"
   sodipodi:docname="SlayingTheDragon.svg">
  <metadata
     id="metadata4162">
    <rdf:RDF>
      <cc:Work
         rdf:about="">
        <dc:format>image/svg+xml</dc:format>
        <dc:type
           rdf:resource="http://purl.org/dc/dcmitype/StillImage" />
        <dc:title></dc:title>
      </cc:Work>
    </rdf:RDF>
  </metadata>
  <defs
     id="defs4160" />
  <sodipodi:namedview
     pagecolor="#ffffff"
     bordercolor="#666666"
     borderopacity="1"
     objecttolerance="10"
     gridtolerance="10"
     guidetolerance="10"
     inkscape:pageopacity="0"
     inkscape:pageshadow="2"
     inkscape:window-width="1600"
     inkscape:window-height="837"
     id="namedview4158"
     showgrid="false"
     inkscape:zoom="0.9329852"
     inkscape:cx="202.5"
     inkscape:cy="359.0625"
     inkscape:window-x="-8"
     inkscape:window-y="-8"
     inkscape:window-maximized="1"
     inkscape:current-layer="svg4156" />
  <path
     style="fill:#000000"
     d="m 68.4375,712.52407 c 0,-1.08256 1.098578,-2.41902 2.646406,-3.21943 4.186177,-2.16476 4.955024,-3.73714 5.300779,-10.84074 0.421329,-8.6563 3.427914,-13.46848 11.696165,-18.72025 4.929892,-3.13134 22.30277,-10.68021 30.5129,-13.25849 10.08142,-3.16593 14.07695,-6.7092 15.17152,-13.45424 0.68542,-4.2238 -1.99467,-7.54871 -6.81342,-8.45271 -3.23716,-0.60729 -4.2346,-2.5567 -2.02997,-3.96743 0.64453,-0.41243 6.23437,-0.75374 12.42187,-0.75845 9.96303,-0.008 11.73262,-0.25982 15.46875,-2.20477 5.83787,-3.03907 8.31109,-5.55159 8.98127,-9.124 0.79214,-4.22246 -1.2126,-7.89153 -5.70002,-10.43212 -4.46872,-2.53 -6.76311,-2.68721 -9.04744,-0.61992 -1.58125,1.43101 -1.8202,1.3838 -3.55825,-0.70312 -1.02475,-1.23043 -1.87721,-2.53577 -1.89437,-2.90076 -0.0172,-0.36498 -2.0351,-1.83695 -4.48431,-3.27104 -2.44922,-1.43409 -5.29688,-3.51538 -6.32813,-4.62509 -1.03125,-1.10972 -3.5625,-2.45071 -5.625,-2.97998 -2.0625,-0.52928 -7.25527,-2.25428 -11.53949,-3.83333 -8.48575,-3.12764 -11.76619,-3.52136 -20.393774,-2.44768 -6.104391,0.75968 -8.864465,-0.11413 -15.102019,-4.78115 l -2.972783,-2.22426 -4.995967,2.31599 c -12.854228,5.95887 -24.097571,5.21435 -33.899585,-2.24478 -3.56278,-2.7112 -7.301078,-6.7235 -9.73475,-10.44824 -2.172977,-3.32576 -4.831323,-7.19436 -5.907436,-8.59689 -3.051093,-3.97659 -6.863751,-18.16394 -5.744297,-21.3752 0.529145,-1.51791 0.61424,-5.11122 0.202802,-8.56375 -0.389884,-3.27167 -0.449582,-8.52569 -0.132661,-11.6756 0.479937,-4.77013 1.214542,-6.57257 4.396287,-10.78676 2.101036,-2.7828 4.480977,-6.32279 5.288758,-7.86663 0.80778,-1.54385 2.993128,-4.27237 4.856328,-6.06337 l 3.387637,-3.25637 8.740002,0.26039 c 7.281101,0.21692 9.271938,-0.0459 11.926725,-1.57466 1.752698,-1.00927 4.546412,-2.11788 6.208256,-2.46356 3.762825,-0.78273 6.755244,-4.27688 10.560973,-12.33172 3.299077,-6.98251 3.214556,-8.93649 -0.58171,-13.4481 -2.571773,-3.05638 -6.821342,-3.71484 -6.057521,-0.9386 2.827741,10.27791 2.443889,13.49683 -2.158285,18.099 -6.075973,6.07597 -11.270231,8.23147 -21.954044,9.11041 -8.389768,0.69022 -10.436397,0.55582 -15.46875,-1.01575 -7.961214,-2.48624 -13.336344,-7.3448 -17.8402253,-16.12575 -3.48201,-6.78866 -3.6079659,-7.36736 -3.75,-17.22926 -0.1363513,-9.46732 0.047685,-10.61109 2.5470106,-15.82966 5.1339507,-10.71963 10.6983567,-16.65218 17.6086537,-18.77363 1.208551,-0.37103 2.61924,-1.0018 3.134865,-1.40171 0.515625,-0.39991 3.046875,-1.37678 5.625,-2.17084 14.345168,-4.4183 22.545247,-9.03321 21.593799,-12.15276 -0.188894,-0.61933 -0.597076,-2.28391 -0.90707,-3.69906 -0.432085,-1.97249 -1.84728,-3.22097 -6.063759,-5.34945 -5.800972,-2.92832 -11.07888,-8.27948 -13.779625,-13.97088 -2.303911,-4.85514 -0.842092,-16.15053 3.240509,-25.03923 1.643252,-3.57772 3.540982,-9.24713 4.217176,-12.59869 1.050713,-5.20787 1.544133,-6.13984 3.394117,-6.41077 2.044373,-0.29939 2.130129,-0.10098 1.543102,3.57008 -1.106383,6.91894 4.910389,16.13064 14.718268,22.53374 2.096961,1.369 4.532246,4.18404 5.875168,6.79133 1.261508,2.44921 2.912249,4.45312 3.668315,4.45312 0.756066,0 2.400942,-2.00391 3.655282,-4.45312 2.858735,-5.58195 9.25295,-11.85455 14.157218,-13.88794 5.770884,-2.39271 19.04771,-11.54475 21.85872,-15.06776 2.56754,-3.21787 4.86003,-4.12872 4.86003,-1.93097 0,0.67248 -1.35533,3.3092 -3.01186,5.85937 -4.42431,6.81109 -7.99353,14.00287 -8.68496,17.49973 -0.33435,1.69094 -0.97464,4.12913 -1.42285,5.41819 -0.448224,1.28906 -1.757902,5.43938 -2.910399,9.22294 -2.3163,7.60418 -1.967522,8.54694 3.172429,8.57521 1.43611,0.007 3.55493,0.63276 4.70849,1.3886 1.15355,0.75584 5.25199,2.02386 9.10764,2.81782 3.85564,0.79396 7.85401,1.85529 8.88526,2.35851 1.03125,0.50323 5.88281,2.2236 10.78125,3.82306 4.89844,1.59946 11.01563,3.87549 13.59375,5.05784 7.22137,3.31177 11.60031,4.68696 12.39474,3.89252 2.36504,-2.36503 0.29283,-32.4589 -3.00902,-43.699 -2.60985,-8.8844 -4.24545,-17.54048 -4.25145,-22.5 -0.008,-6.58502 -1.93463,-12.11494 -4.77918,-13.71732 -1.22655,-0.69093 -4.14075,-1.19105 -6.476,-1.11137 -3.49006,0.11907 -5.13597,-0.4674 -9.24582,-3.29447 -2.74995,-1.89164 -5.39598,-3.43934 -5.88006,-3.43934 -0.48408,0 -1.45659,-1.37966 -2.16115,-3.06591 -0.70456,-1.68625 -2.1596,-3.86101 -3.23342,-4.8328 -3.19781,-2.89399 -2.44027,-5.78374 3.04721,-11.62402 5.71528,-6.0827 14.79522,-19.61402 17.94197,-26.73793 1.17418,-2.65819 2.44713,-7.11061 2.82878,-9.89424 0.38164,-2.78363 2.1767,-9.11176 3.98902,-14.0625 10.38864,-28.37895 9.73351,-25.6436 9.00421,-37.5951 -0.36185,-5.92969 -0.5527,-15.56546 -0.42412,-21.41284 l 0.23376,-10.63159 -2.17723,0.66435 c -1.19749,0.3654 -2.81005,1.19737 -3.58349,1.84883 -2.07144,1.74476 -5.38216,2.55762 -6.04551,1.48432 -0.31806,-0.51465 0.65,-1.5709 2.15125,-2.34722 3.06472,-1.58483 4.62464,-4.29335 2.47267,-4.29335 -0.74951,0 -3.41964,1.26562 -5.93364,2.8125 -5.06967,3.1194 -7.76726,3.51788 -9.51977,1.40625 -0.6419,-0.77344 -2.35358,-1.40625 -3.80377,-1.40625 -4.41623,0 -7.28547,-1.61084 -14.6178,-8.20669 -7.38473,-6.64299 -8.87455,-8.77836 -11.55045,-16.55534 -0.90255,-2.62307 -2.75396,-6.40912 -4.11424,-8.41345 -1.360277,-2.00433 -2.937031,-5.37933 -3.503899,-7.5 -1.3575,-5.07849 -1.929132,-5.67825 -9.193619,-9.64604 C 76.165281,129.65887 66.622667,122.81572 63.525699,118.53503 53.592279,104.80484 48.174905,97.789228 46.467009,96.443663 42.937266,93.662757 37.485585,84.732964 35.317122,78.180271 c -1.17606,-3.553837 -4.11703,-9.332742 -6.535489,-12.842012 -2.418458,-3.50927 -4.63603,-7.517082 -4.927937,-8.90625 -0.291908,-1.389168 -1.110693,-3.854362 -1.819524,-5.47821 -0.708829,-1.623848 -1.57017,-4.576973 -1.914089,-6.5625 -0.343919,-1.985527 -1.255518,-5.86213 -2.025774,-8.614673 -0.874077,-3.123545 -1.169366,-6.47112 -0.78562,-8.90625 0.338167,-2.145895 0.561524,-6.780081 0.496351,-10.298191 C 17.6735,9.4714547 19.342965,5.625 22.556414,5.625 c 1.200142,0 6.743611,5.003525 15.212763,13.731012 11.517893,11.869223 17.426061,17.32309 28.793323,26.579297 1.289062,1.049665 3.820312,2.675709 5.625,3.613429 1.804687,0.937719 9.824137,5.267644 17.820998,9.622054 7.996861,4.35441 17.459892,8.875723 21.028942,10.047362 5.87612,1.928994 6.56918,1.987343 7.33573,0.617598 2.47418,-4.421121 19.2932,-21.085752 21.2811,-21.085752 0.45838,0 1.49712,-1.265625 2.30832,-2.8125 0.8112,-1.546875 2.13711,-4.0751 2.94647,-5.618276 2.59666,-4.95096 0.13064,-9.381724 -5.22156,-9.381724 -4.16186,0 -5.62403,-1.467782 -6.26729,-6.291357 -0.36622,-2.74609 0.007,-4.16176 1.64242,-6.237126 1.92307,-2.439745 2.49451,-2.632877 6.26221,-2.116455 3.75831,0.515133 4.42037,0.293958 7.07931,-2.364982 2.80303,-2.803034 3.2703,-2.933262 10.52482,-2.933262 4.17535,0 8.54203,0.508679 9.70372,1.130398 2.43652,1.303985 4.80481,-0.0051 4.80481,-2.6559079 0,-2.8805556 2.78484,-5.7188081 5.6112,-5.7188081 3.16559,0 5.40022,1.9553663 6.23542,5.4561817 0.91122,3.8194913 1.89163,4.5957813 6.69921,5.3044453 2.43261,0.358579 6.95417,1.543085 10.04792,2.632237 4.792,1.687019 7.84633,1.987916 20.625,2.031862 16.5663,0.05697 21.4318,1.039544 28.57741,5.771115 4.01786,2.660484 4.39676,2.720746 20.57043,3.271582 15.68074,0.53405 16.74904,0.692335 22.10216,3.274785 5.07761,2.449543 6.62855,2.726204 15.9375,2.843009 8.3066,0.104226 11.20741,0.521612 14.91326,2.14581 2.53043,1.109027 7.80386,2.428599 11.71875,2.93238 3.9149,0.503783 9.2938,1.61908 11.95312,2.478438 5.81123,1.877897 4.97042,2.308002 19.60497,-10.028529 5.60533,-4.725141 11.25878,-9.159091 12.5632,-9.853223 1.30444,-0.694131 4.84863,-4.059794 7.876,-7.47925 5.57961,-6.3022579 12.04013,-11.3468808 13.43088,-10.4873506 0.41918,0.2590694 0.71728,3.7794853 0.66242,7.8231466 -0.0817,6.024133 -0.56148,8.261589 -2.65623,12.387273 -1.61912,3.188914 -2.35859,5.823796 -2.01671,7.185959 0.34186,1.362049 -0.49053,4.328787 -2.26981,8.089839 -1.54529,3.266472 -2.80996,6.920122 -2.81036,8.119222 -4e-4,1.1991 -1.61645,4.995975 -3.59119,8.4375 -4.22883,7.369864 -6.72205,12.65412 -6.72205,14.247038 0,0.629119 -2.56001,6.339739 -5.68892,12.690266 -9.59341,19.471094 -22.78226,32.284634 -45.16971,43.884314 -1.87985,0.97401 -3.88089,2.95865 -4.50689,4.46995 -0.61924,1.49498 -2.79325,4.03872 -4.83112,5.65275 -2.03788,1.61402 -4.668,4.45972 -5.84472,6.32376 -1.17672,1.86405 -3.31704,4.43826 -4.75625,5.72046 -1.43921,1.28221 -6.44433,6.07101 -11.12248,10.6418 -11.78525,11.51476 -23.97848,19.34573 -30.12232,19.34573 -1.85806,0 -7.63978,-0.88307 -12.84827,-1.96238 -5.20848,-1.0793 -10.65215,-1.72593 -12.09705,-1.43695 -1.44489,0.28898 -2.87926,0.11736 -3.1875,-0.38137 -0.74967,-1.213 -2.32477,-1.15706 -2.32477,0.0826 0,0.54415 2.22761,2.0092 4.95025,3.25568 4.324,1.97958 6.41931,2.28084 16.56208,2.38125 6.38651,0.0632 12.27999,0.46862 13.09663,0.9009 2.39831,1.26947 9.98887,2.78531 13.94754,2.78531 5.48863,0 9.31325,1.69665 11.28189,5.00479 1.63088,2.74057 1.70526,4.16515 0.98683,18.90146 -0.42734,8.76562 -1.61399,21.42187 -2.63701,28.125 -1.02302,6.70312 -2.31308,16.19531 -2.8668,21.09375 -0.55372,4.89844 -1.23312,9.75 -1.50976,10.78125 -2.52407,9.40894 -5.79827,18.19269 -8.30272,22.27387 -1.6584,2.7025 -5.65721,9.23888 -8.88623,14.5253 -3.29743,5.39842 -7.16584,10.49486 -8.82495,11.62648 -1.6247,1.10814 -4.22916,3.46966 -5.7877,5.24782 l -2.83369,3.233 -3.26006,-5.76048 c -1.79302,-3.16829 -5.58036,-9.46379 -8.4163,-13.99002 -2.83594,-4.52623 -6.63281,-10.87079 -8.4375,-14.099 -1.80469,-3.22822 -4.75781,-8.04918 -6.5625,-10.71325 l -3.28125,-4.84375 0.12854,-16.40625 c 0.0728,-9.28676 0.78768,-21.10611 1.64748,-27.23666 0.83541,-5.95673 1.67669,-13.97235 1.8695,-17.8125 0.19281,-3.84015 0.87319,-13.73209 1.51198,-21.98209 0.88381,-11.41472 0.90209,-15.65271 0.0765,-17.73079 -0.78623,-1.97897 -1.36763,-2.44807 -2.11179,-1.70391 -1.9298,1.9298 -5.71404,28.77152 -6.8373,48.4972 -0.29362,5.15625 -1.01385,15.60792 -1.60051,23.22594 -0.78873,10.24204 -0.79341,15.12742 -0.0179,18.75 0.57678,2.69448 1.24532,6.77366 1.48562,9.06484 0.27204,2.59364 1.1223,4.71648 2.253,5.625 0.99884,0.80257 3.39896,4.41234 5.33359,8.02172 1.93465,3.60937 4.09974,7.22853 4.81132,8.04257 0.71158,0.81404 1.29378,1.75692 1.29378,2.09529 0,0.8588 4.73216,8.66998 12.60081,20.79964 6.65732,10.26236 7.3985,11.77826 11.00105,22.5 1.03952,3.09375 2.75,7.52344 3.80106,9.84375 1.05107,2.32031 2.85654,6.98562 4.01215,10.36735 2.27893,6.66897 4.47671,11.27314 7.13401,14.94515 4.77873,6.60353 4.22205,16.55425 -1.19502,21.36097 -1.57766,1.39991 -5.66037,5.92028 -9.07268,10.04528 -3.41231,4.125 -10.27732,11.50781 -15.25556,16.40625 -4.97826,4.89844 -11.31671,11.60781 -14.08547,14.90971 -10.53838,12.56756 -14.87791,18.19041 -14.87791,19.27761 0,0.61885 1.42771,2.56659 3.17269,4.3283 6.72326,6.78778 8.07731,9.78552 8.07731,17.88246 0,6.09348 0.41767,8.1852 2.38604,11.94964 1.31232,2.50978 3.23062,5.32755 4.26287,6.26173 1.03225,0.93418 2.76629,3.2811 3.85342,5.21537 1.62466,2.89071 2.56759,3.56713 5.296,3.79915 3.10488,0.26404 3.45609,0.63611 5.43421,5.7569 2.60686,6.74845 3.70459,8.11913 6.50237,8.11913 1.79704,0 2.37433,0.71914 3.19846,3.98437 1.95373,7.74067 2.5319,8.49466 6.07315,7.92 3.61901,-0.58728 4.53799,0.1792 5.95955,4.97063 1.94879,6.56844 5.22768,14.59397 7.03848,17.22756 3.8752,5.63599 16.58667,8.41569 28.34174,6.19767 7.45246,-1.40618 12.31836,-5.16156 15.93464,-12.29795 3.3136,-6.53906 3.5123,-14.62758 0.45703,-18.60375 l -1.78285,-2.32021 -4.52443,1.62173 c -5.81225,2.08333 -8.32276,2.0395 -11.46814,-0.20022 -1.40011,-0.99696 -3.59204,-2.07528 -4.87095,-2.39627 -2.15945,-0.54199 -19.5997,-13.66862 -28.73221,-21.62568 -4.84256,-4.21926 -5.33179,-7.22382 -1.17188,-7.19688 0.25781,0.002 1.39603,0.28403 2.52938,0.62747 1.65645,0.50196 2.35074,0.0635 3.5397,-2.23576 1.69275,-3.27343 3.79663,-3.73251 4.51506,-0.98521 0.32709,1.25079 1.27876,1.875 2.85866,1.875 1.52426,0 2.57503,0.65117 2.94823,1.82705 0.31893,1.00487 1.37142,2.07827 2.33885,2.38532 0.96744,0.30705 2.61912,2.01613 3.67043,3.79795 1.648,2.79315 2.40037,3.2377 5.45869,3.22533 5.71362,-0.0232 6.47788,-0.95402 4.73212,-5.76386 -0.81159,-2.23605 -1.75949,-5.33117 -2.10645,-6.87804 -1.27943,-5.70425 -3.88642,-8.38838 -12.17229,-12.5325 -5.59351,-2.79756 -8.43917,-4.81636 -9.39534,-6.66537 -0.75437,-1.4588 -2.85837,-3.57125 -4.67556,-4.69434 -1.81719,-1.12307 -3.30398,-2.42943 -3.30398,-2.903 0,-1.72641 3.24468,-0.79779 5.81425,1.66403 2.07975,1.99252 2.87781,2.28287 3.78401,1.37667 0.90619,-0.90619 0.67779,-2.03549 -1.08297,-5.35454 -2.29608,-4.32817 -2.1869,-5.75989 0.3646,-4.78079 1.86798,0.71681 3.30761,4.50346 3.30761,8.7 0,4.69904 1.39569,6.68972 5.56633,7.93928 6.13373,1.8377 13.02408,8.69752 16.58504,16.51155 3.5276,7.74079 5.8137,8.86184 8.2933,4.06682 2.10453,-4.06972 1.79331,-6.25454 -1.91046,-13.41158 -2.65826,-5.13672 -3.11364,-6.72933 -2.22896,-7.7953 0.90531,-1.09084 0.73611,-1.33968 -0.91094,-1.33968 -3.78764,0 -9.98321,-5.00186 -10.64848,-8.59684 -0.37929,-2.04964 -0.48336,-1.99642 -1.68681,0.86246 -3.26313,7.7518 -6.11349,-0.72291 -3.51315,-10.44529 0.87497,-3.2714 0.84839,-5.22785 -0.12623,-9.29047 -1.47128,-6.13301 -0.82261,-9.3984 2.47393,-12.45351 5.54608,-5.13994 16.98451,-1.57582 21.10797,6.57707 1.0613,2.09843 4.97732,7.19033 8.70223,11.31533 3.72492,4.125 7.46776,8.85168 8.31741,10.50372 1.7102,3.32525 5.06606,5.20585 12.7561,7.14848 4.98156,1.25842 5.12422,1.38589 5.23865,4.68103 0.0731,2.10519 1.41717,5.49279 3.55085,8.94963 1.9813,3.20997 3.43322,6.76836 3.43322,8.41424 0,2.65757 2.52824,8.14641 5.24946,11.39665 0.64755,0.77344 2.53247,4.14844 4.18874,7.5 1.65626,3.35156 3.79833,7.10261 4.76014,8.33566 2.64209,3.38714 0.82406,4.98126 -4.82615,4.23172 l -4.43522,-0.58834 -0.43504,5.24595 c -0.23927,2.88528 -1.08207,5.99077 -1.8729,6.9011 -0.79083,0.91034 -1.67269,3.19607 -1.95968,5.07942 -0.287,1.88333 -1.66275,5.14832 -3.05725,7.25554 -2.2835,3.45061 -2.4199,4.1102 -1.37275,6.63825 1.58104,3.81696 0.54721,8.4677 -2.8258,12.71209 -1.8763,2.36101 -2.78855,4.56715 -2.78855,6.74367 l 0,3.23475 3.98437,-0.70341 c 2.19141,-0.38689 4.77742,-0.657 5.74669,-0.60026 2.16253,0.12659 5.92305,3.53295 7.72584,6.99823 0.73769,1.41797 1.87227,2.57813 2.52129,2.57813 1.30636,0 4.3998,4.72454 4.39158,6.70715 -0.0162,3.9174 -2.0722,8.00817 -4.84929,9.64863 -2.08186,1.22979 -3.12019,1.43883 -3.37341,0.67918 -0.6953,-2.08589 -2.84409,-1.08522 -4.80446,2.23738 -2.76973,4.69431 -2.48507,6.41082 1.73564,10.46645 3.55824,3.41909 6.60925,8.93546 6.60925,11.94985 0,0.90711 -0.86358,1.43636 -2.34375,1.43636 -2.72663,0 -2.82341,0.49803 -0.96235,4.95217 2.48705,5.95235 3.21168,10.7561 1.89427,12.55775 -1.01003,1.38131 -1.43247,1.44326 -2.6952,0.39531 -2.71244,-2.25114 -7.80366,-0.49395 -10.37621,3.58122 -1.38235,2.18978 -3.18951,3.75997 -4.64839,4.03885 -2.9089,0.55607 -3.36431,0.15929 -3.38272,-2.94718 -0.0178,-3.01144 -0.76006,-4.15169 -3.71784,-5.71166 -1.27926,-0.6747 -3.06824,-2.17042 -3.9755,-3.32381 -1.19533,-1.51961 -3.39458,-2.39912 -7.98657,-3.19394 -4.62736,-0.80095 -7.04979,-1.7758 -8.97908,-3.61341 -2.51918,-2.39947 -3.02073,-2.50139 -10.78125,-2.19068 -10.94626,0.43827 -17.35104,0.46267 -24.07666,0.0917 -4.40079,-0.24271 -6.49149,0.14097 -9.60638,1.76298 -2.18975,1.14026 -5.79205,2.32139 -8.0051,2.62472 -4.71664,0.64649 -5.77059,-0.23993 -7.53627,-6.33846 -0.69648,-2.40558 -1.8183,-4.20407 -2.73208,-4.38004 -0.94109,-0.18124 -5.43917,3.48241 -11.44559,9.32235 -5.44237,5.2915 -11.26589,10.46917 -12.94115,11.50592 -1.67526,1.03676 -3.35694,2.38211 -3.73706,2.98967 -1.05424,1.68502 -18.23192,12.87827 -24.93507,16.24807 -3.26627,1.64203 -8.96159,4.18761 -12.65625,5.65686 -3.69465,1.46924 -10.51442,4.202 -15.15505,6.07279 -8.7044,3.50905 -18.84352,5.51156 -33.60534,6.63719 -4.56107,0.3478 -12.00206,1.62501 -16.53553,2.83825 -4.53347,1.21323 -10.50481,2.48624 -13.26965,2.8289 -7.19585,0.89182 -16.73375,3.60784 -21.02433,5.98689 -9.501942,5.26866 -12.541181,7.32105 -15.500567,10.46747 -2.385092,2.53583 -4.442639,3.65901 -8.157603,4.45312 -6.77118,1.44745 -7.68823,1.35335 -7.68823,-0.78892 z m 76.875,-41.7758 c 6.33929,-1.70172 26.18416,-8.76002 37.96875,-13.50448 1.03125,-0.41518 6.51562,-2.56369 12.1875,-4.77446 5.67187,-2.21077 12.42187,-4.96361 15,-6.11743 2.57812,-1.15381 6.77365,-2.99735 9.32339,-4.09675 2.54974,-1.0994 6.03021,-3.06241 7.73438,-4.36223 5.79488,-4.41999 2.96151,-5.65713 -4.27465,-1.86646 -4.03603,2.11428 -16.47263,7.11149 -47.93937,19.26271 -6.96094,2.68805 -14.97656,5.86518 -17.8125,7.06031 -2.83594,1.19511 -9.79688,3.73018 -15.46875,5.63346 -17.48393,5.86701 -15.25886,7.74223 3.28125,2.76533 z m 33.83617,-2.88334 c 0.5945,-0.71633 1.58486,-1.30243 2.2008,-1.30243 0.61592,0 3.5946,-1.26563 6.61928,-2.8125 3.02467,-1.54688 5.87062,-2.8125 6.32435,-2.8125 0.45371,0 3.01322,-1.00414 5.68779,-2.23141 6.32096,-2.90048 15.40605,-5.52637 16.58956,-4.79493 0.51126,0.31598 0.92955,0.20917 0.92955,-0.23735 0,-0.44653 1.16016,-1.27029 2.57812,-1.8306 l 2.57813,-1.01875 -2.31241,-0.0997 c -1.27182,-0.0548 -4.01401,0.50257 -6.09375,1.2387 -2.07974,0.73614 -7.31165,2.4313 -11.62646,3.76704 -4.31482,1.33575 -11.90857,4.3202 -16.875,6.63211 -10.97546,5.10918 -11.64486,5.48235 -12.05812,6.72212 -0.46673,1.40022 4.13774,0.37122 5.45816,-1.21977 z M 160.72481,644.9131 c 3.12479,-0.56342 7.79081,-1.61078 10.36894,-2.32746 2.57812,-0.71669 7.42969,-1.731 10.78125,-2.25403 3.35156,-0.52303 8.83594,-1.95865 12.1875,-3.19025 3.35156,-1.2316 7.35937,-2.68632 8.90625,-3.2327 1.54687,-0.54637 5.34375,-1.88985 8.4375,-2.98548 7.97139,-2.82304 25.85565,-8.42318 26.89972,-8.42318 0.48217,0 3.06449,-0.99479 5.73848,-2.21065 2.67398,-1.21586 6.44383,-2.77717 8.37742,-3.46958 1.9336,-0.69242 3.51563,-1.807 3.51563,-2.47685 0,-1.78287 -1.17053,-1.56016 -10.84496,2.06333 -9.68759,3.62842 -12.14513,4.03563 -11.31601,1.875 0.7347,-1.9146 -0.64165,-1.76571 -4.30075,0.46524 -1.68824,1.02933 -3.73631,1.87308 -4.55127,1.875 -0.81496,0.002 -3.49728,1.02391 -5.96074,2.27107 -2.46345,1.24716 -5.4714,2.51663 -6.68433,2.82106 -1.21294,0.30442 -5.70248,2.15375 -9.97677,4.10961 -11.15453,5.1042 -22.13319,8.35406 -38.70892,11.45849 C 149.6654,643.89032 150,643.79952 150,644.97058 c 0,1.246 3.60266,1.22669 10.72481,-0.0575 z m 131.77857,-31.79443 c 0.78721,-1.47091 0.25751,-1.6951 -4.95155,-2.09563 -3.20819,-0.24667 -6.00627,-0.29912 -6.21796,-0.11652 -0.21168,0.18259 0.35972,1.15476 1.26978,2.16036 2.77809,3.06975 8.2692,3.09848 9.89973,0.0518 z m -14.05486,-9.35271 c 0.50381,-1.81347 0.91838,-4.18704 0.92125,-5.27461 0.007,-2.35589 -5.01768,-12.14209 -7.77677,-15.14859 -2.54753,-2.77594 -11.06944,-6.78026 -14.42963,-6.78026 -1.45214,0 -5.59155,-1.08615 -9.19868,-2.41367 -3.60714,-1.32752 -9.51146,-3.49453 -13.12071,-4.81559 -7.08888,-2.59467 -21.6038,-5.89574 -25.92378,-5.89574 -3.11903,0 -3.48713,1.37183 -0.75976,2.83147 2.25149,1.20495 14.91411,3.73103 18.70282,3.73103 1.45862,0 4.81348,1.46546 7.51174,3.28125 2.68176,1.80469 5.41488,3.28125 6.07361,3.28125 0.65873,0 1.77649,0.838 2.48392,1.86223 0.9996,1.44724 3.3472,2.16661 10.53487,3.22816 11.16748,1.64933 15.05811,3.86274 18.3357,10.43138 1.73277,3.47263 2.23517,5.88449 2.11723,10.16404 -0.085,3.08606 -0.58005,6.03641 -1.09999,6.55635 -0.51994,0.51994 -0.92819,1.81018 -0.90724,2.86721 0.0327,1.64928 0.43393,1.45873 2.82874,-1.34341 1.53485,-1.79591 3.20285,-4.74903 3.70668,-6.5625 z m -92.42783,7.10506 c 4.16518,-0.72407 10.73712,-1.79822 14.60431,-2.387 10.61969,-1.61685 20.98912,-3.88194 21.95364,-4.79556 2.62881,-2.49003 -10.99736,-1.55996 -22.42239,1.53046 -2.57812,0.69737 -8.18248,1.69976 -12.45413,2.22755 -8.09579,1.00026 -11.89132,2.33444 -10.9543,3.85056 0.6914,1.11871 0.27742,1.13774 9.27287,-0.42601 z m 149.03988,0.252 c 2.3101,-1.05256 3.88835,-3.42411 2.92187,-4.39058 -0.27456,-0.27456 -5.17365,-0.69179 -10.88688,-0.92718 -8.41409,-0.34668 -11.34583,-0.10231 -15.43071,1.28618 -2.77365,0.94279 -5.27357,2.315 -5.55536,3.04936 -0.38334,0.99898 0.0223,1.19388 1.61095,0.77402 10.28794,-2.71894 11.71728,-2.79288 15.40558,-0.79703 4.06546,2.19997 8.49376,2.57295 11.93455,1.00523 z m -139.59182,-6.93064 c 12.2252,-2.17603 22.54158,-3.71679 32.10937,-4.79554 2.6331,-0.29687 3.98438,-0.90667 3.98438,-1.79803 0,-0.74184 -0.31641,-1.34046 -0.70313,-1.33025 -4.26524,0.11261 -25.08148,3.11625 -31.64062,4.56553 -4.64063,1.02538 -10.44141,2.12678 -12.89063,2.44755 -2.97878,0.39014 -4.45312,1.02981 -4.45312,1.93205 0,0.74184 0.10547,1.34118 0.23437,1.33184 0.12891,-0.009 6.14063,-1.06825 13.35938,-2.35315 z m -36.48439,-0.33707 c 1.58983,-0.96948 4.22655,-2.05611 5.85938,-2.41474 3.10113,-0.68112 3.97822,-2.7276 1.56577,-3.65334 -1.38423,-0.53118 -11.08628,2.63858 -13.36263,4.36572 -1.89699,1.4393 -1.34748,3.47234 0.9375,3.46854 1.16015,-0.002 3.41014,-0.7967 4.99998,-1.76618 z m 14.29568,-4.8687 c 0.12109,-3.09044 -0.37615,-4.35195 -2.5867,-6.5625 C 168.02837,589.75914 165,588.78002 165,590.58337 c 0,0.9212 3.73753,6.92924 5.84617,9.39765 0.65179,0.76301 1.07961,1.71223 0.9507,2.10938 -0.1289,0.39715 0.11835,0.7221 0.54945,0.7221 0.43109,0 0.85126,-1.72165 0.93372,-3.82589 z m 18.90746,-2.73492 c 0.77344,-0.37896 4.99219,-1.19235 9.375,-1.80754 11.4181,-1.60268 12.1875,-1.8193 12.1875,-3.43144 0,-0.93005 -0.58942,-1.28877 -1.64063,-0.99844 -0.90234,0.24921 -3.75,0.71506 -6.32812,1.03521 -3.84603,0.47759 -16.75874,3.3286 -21.85629,4.82567 -0.67722,0.19888 -0.96073,0.79941 -0.63002,1.33449 0.6066,0.9815 6.15385,0.38392 8.89256,-0.95795 z m -57.65625,-14.90972 c 3.60937,-0.95354 6.5625,-2.09244 6.5625,-2.53089 0,-0.43845 -1.12536,-1.19295 -2.50079,-1.67666 -1.94494,-0.684 -4.08184,-0.30285 -9.61384,1.71479 -3.91218,1.42685 -7.34687,2.97261 -7.63265,3.43503 -0.86723,1.40319 6.22526,0.89632 13.18478,-0.94227 z m 43.4279,-0.36752 c 5.06251,-4.10285 6.25497,-14.92445 2.62296,-23.80328 -3.02523,-7.39547 -5.66521,-22.21729 -4.8993,-27.50643 0.33418,-2.3078 0.96531,-10.52412 1.40248,-18.25849 0.77817,-13.76694 3.15765,-27.28556 7.57127,-43.01476 2.25634,-8.0411 2.32168,-9.01649 0.60402,-9.01649 -0.74997,0 -1.5675,1.41573 -1.92839,3.33938 -0.34456,1.83667 -1.89016,7.42651 -3.43466,12.42188 -7.0737,22.87831 -7.29269,24.25705 -7.24984,45.64499 0.041,20.45786 0.91878,27.75007 3.72505,30.94544 2.84951,3.24461 3.24785,12.89064 0.85682,20.748 -1.74312,5.72816 -2.30009,6.62461 -3.86221,6.2161 -1.00395,-0.26253 -2.08228,-1.58708 -2.3963,-2.94344 -0.31402,-1.35635 -1.10393,-2.89849 -1.75537,-3.42697 -0.65144,-0.52849 -1.33911,-1.71093 -1.52818,-2.62765 -0.66615,-3.22998 -2.22962,-1.60601 -3.17467,3.2975 -1.1815,6.13041 -3.2878,6.98865 -6.04791,2.4643 -3.1217,-5.11709 -4.97702,-11.66271 -5.5984,-19.75141 -0.11013,-1.43355 -1.72611,-0.64282 -2.17216,1.06291 -0.785,3.00182 1.91718,15.90236 4.17086,19.91226 3.1641,5.62975 5.44833,6.56538 14.35353,5.87927 4.125,-0.31782 8.05818,-1.03022 8.7404,-1.58311 z m -54.26038,-2.44869 c 11.90915,-3.70655 20.67623,-13.4699 20.67623,-23.02585 0,-2.33745 -0.32286,-4.24991 -0.71745,-4.24991 -0.3946,0 -1.48296,2.15533 -2.41857,4.78962 -2.23055,6.28025 -7.7023,12.08293 -15.79173,16.74684 -3.6022,2.07682 -6.69587,3.77604 -6.87482,3.77604 -1.66927,0 -5.12004,2.07814 -4.66727,2.81075 0.85005,1.3754 3.34517,1.15949 9.79361,-0.84749 z m 194.7678,0.2356 c 0.75009,-1.9547 -3.49173,-10.23756 -4.44935,-8.68809 -0.57872,0.93639 0.0389,4.73768 1.47321,9.06735 0.55288,1.6689 2.27437,1.44952 2.97615,-0.37926 z M 294.375,571.23613 c 0,-6.09118 -1.26191,-5.82472 -2.80113,0.59148 -1.2403,5.17016 -0.65823,7.37631 1.47835,5.60312 0.84188,-0.6987 1.32278,-2.95076 1.32278,-6.1946 z m 10.7988,1.81074 c -0.74265,-5.99979 -0.87394,-6.30986 -2.29893,-5.42917 -2.25786,1.39544 -0.5562,10.8198 1.95364,10.8198 0.68501,0 0.79671,-1.74368 0.34529,-5.39063 z m -193.59071,3.07169 c -1.28699,-1.55073 -6.42722,-2.75779 -9.0676,-2.1293 -1.36607,0.32516 -1.03765,0.73385 1.54701,1.92507 1.80469,0.83175 4.49306,1.52879 5.97416,1.54898 2.26756,0.0309 2.51183,-0.18151 1.54643,-1.34475 z m 171.04074,-10.54191 c 1.0277,-4.09469 -1.07506,-4.66899 -2.71596,-0.74178 -0.8087,1.93551 -1.47037,4.16579 -1.47037,4.95617 0,2.24087 3.43376,-1.21591 4.18633,-4.21439 z m 44.15093,0.1585 c -0.82802,-1.26371 -1.91763,-2.29765 -2.42137,-2.29765 -1.64773,0 -0.96157,3.11165 1.19348,5.41226 1.76202,1.88104 2.16075,1.99918 2.42137,0.71745 0.1716,-0.84392 -0.36547,-2.56834 -1.19348,-3.83206 z M 87.052296,564.60937 c 2.263027,-6.12705 9.448695,-14.20833 15.277984,-17.18221 3.80032,-1.93878 4.72859,-3.67716 1.96355,-3.67716 -0.90401,0 -2.85581,1.28427 -4.337336,2.85395 -1.481513,1.56966 -4.243257,3.64448 -6.137213,4.61071 -3.291856,1.67938 -8.191762,8.08276 -11.049455,14.43985 -1.618593,3.60065 -1.52568,4.34549 0.542057,4.34549 1.273842,0 2.290615,-1.46536 3.740413,-5.39063 z m 251.873994,-6.77472 c -2.11056,-2.33215 -3.44338,-2.4608 -2.65758,-0.25653 1.04233,2.92391 2.38425,4.14392 3.41941,3.10876 0.64844,-0.64844 0.40384,-1.56418 -0.76183,-2.85223 z m -97.94807,-1.91894 c 1.50877,-0.80748 1.70066,-1.62892 1.21246,-5.19064 -0.47772,-3.48535 -0.26742,-4.46301 1.1928,-5.54525 1.73567,-1.28639 1.73461,-1.34215 -0.0504,-2.66469 -1.13473,-0.84068 -1.84279,-2.51296 -1.875,-4.4283 -0.0803,-4.77461 -2.07793,-4.40997 -2.81633,0.51407 -0.69375,4.62621 -1.45813,5.22528 -8.25106,6.46662 -3.37938,0.61755 -3.51507,0.54088 -3.50127,-1.97817 0.0204,-3.73187 1.25532,-5.22557 5.24567,-6.34515 1.92277,-0.53947 3.69029,-1.56388 3.92781,-2.27646 0.41799,-1.25396 -0.53042,-1.2516 -5.43783,0.0135 -1.13592,0.29283 -1.34937,-0.5201 -1.11041,-4.22878 l 0.29586,-4.59131 -7.56148,0.51828 -7.56147,0.51828 0,-3.07781 c 0,-3.73141 1.12756,-4.75576 6.37591,-5.7923 9.76727,-1.92901 -0.91872,-3.53929 -12.17231,-1.83425 l -4.39015,0.66516 -0.29735,-3.09488 c -0.37143,-3.86589 -2.0652,-4.05835 -2.48516,-0.28237 -0.39985,3.59509 -2.33765,5.73322 -5.82887,6.43146 -3.61967,0.72393 -3.56494,2.47479 0.0773,2.47479 1.6632,0 3.06607,0.58413 3.38236,1.40835 0.88889,2.3164 -0.47328,5.92531 -2.47646,6.56109 -1.96095,0.62238 -2.63428,3.28056 -0.83099,3.28056 0.68292,0 0.82977,1.1304 0.42627,3.28125 -0.80558,4.29412 0.88143,4.31572 2.92162,0.0374 1.51276,-3.1723 4.96696,-5.19365 8.87517,-5.19365 2.06642,0 2.29768,3.06101 0.6474,8.56915 -1.2819,4.27861 -0.5617,5.49071 1.92519,3.24011 2.20431,-1.99487 11.48837,-4.5459 12.57812,-3.45615 0.43841,0.4384 0.34982,2.417 -0.19685,4.39689 -1.39414,5.04916 -0.38221,5.5984 6.93033,3.76155 3.41227,-0.85714 6.60277,-1.31204 7.09002,-1.01091 1.58434,0.97918 0.93916,5.07521 -0.9891,6.27942 -2.43993,1.52377 -2.37092,2.36901 0.23437,2.87082 1.16016,0.22345 2.24258,0.46373 2.40538,0.53395 0.16281,0.0702 1.10262,-0.30401 2.08846,-0.83162 z M 52.422806,547.81478 c 1.571298,-2.90109 3.740233,-7.6392 4.819856,-10.52912 1.079623,-2.88992 2.479498,-5.88722 3.110834,-6.66066 1.615488,-1.9791 7.679053,-12.32418 8.379839,-14.29688 1.122275,-3.15918 -1.203795,-1.59352 -5.652283,3.80452 -5.840967,7.08775 -14.202388,23.63094 -14.972464,29.62323 -0.74143,5.76937 0.421438,5.24616 4.314218,-1.94109 z M 96.5625,545.65442 c 0,-0.49944 0.574284,-0.6877 1.276181,-0.41835 2.620659,1.00564 12.879039,-18.65991 10.800509,-20.70482 -0.63819,-0.62786 -1.43363,-0.31823 -2.40841,0.9375 -1.35219,1.74191 -6.788083,12.91494 -8.095989,16.64062 -0.316772,0.90235 -1.221994,1.64063 -2.011622,1.64063 -0.789619,0 -1.435669,0.63281 -1.435669,1.40625 0,0.77344 0.421875,1.40625 0.9375,1.40625 0.515625,0 0.9375,-0.40864 0.9375,-0.90808 z m 60.7408,-6.35755 c 2.51859,-5.59475 3.70701,-18.40821 2.32596,-25.07812 -0.64059,-3.09375 -1.81999,-9.63281 -2.62089,-14.53125 -0.80089,-4.89844 -2.10866,-11.01563 -2.90614,-13.59375 -0.8442,-2.72915 -1.66751,-10.08396 -1.97067,-17.60442 -0.28639,-7.10431 -0.86198,-13.12784 -1.27909,-13.38564 -1.33889,-0.82747 -2.78349,3.1782 -3.35559,9.30463 -0.40569,4.34451 -0.0302,8.21913 1.38499,14.29169 1.9988,8.57674 4.17258,18.69018 6.34463,29.51803 1.39311,6.94484 1.10187,21.93824 -0.54495,28.05406 -0.98664,3.66408 -0.76978,6.5404 0.49311,6.5404 0.30031,0 1.25819,-1.58203 2.12864,-3.51562 z m 192.80389,-17.96749 c 0.29169,-0.47197 -0.52717,-2.1149 -1.81967,-3.65096 -1.29251,-1.53606 -2.35002,-3.20762 -2.35002,-3.71459 0,-0.50696 -0.63281,-1.44693 -1.40625,-2.08883 -1.96283,-1.62901 -1.90098,0.99376 0.11717,4.96843 2.61463,5.14942 4.22886,6.47598 5.45877,4.48595 z m 6.90533,-6.4797 c 0.16398,-1.66046 -0.14666,-2.97468 -0.70312,-2.97468 -0.5483,0 -1.00266,0.52734 -1.0097,1.17187 -0.007,0.64454 -0.28195,2.17758 -0.61092,3.40677 -0.44593,1.66626 -0.26377,2.12495 0.71593,1.8028 0.72272,-0.23765 1.44624,-1.77069 1.60781,-3.40676 z M 164.27058,503.4375 c 0.24687,-3.35156 0.17255,-7.35938 -0.16514,-8.90625 -0.58268,-2.66911 -0.64386,-2.59742 -1.20003,1.40625 -0.32233,2.32031 -0.62966,6.74285 -0.68297,9.82786 -0.12861,7.44352 1.46154,5.63619 2.04814,-2.32786 z m 62.60442,5.65798 c 0,-1.36041 -3.28396,-2.84548 -6.29227,-2.84548 -1.46604,0 -3.61573,-0.66555 -4.77708,-1.47899 -2.15341,-1.50831 -10.21842,-16.68707 -12.34297,-23.23014 -1.31668,-4.05501 -12.00804,-15.60337 -14.44546,-15.60337 -2.63408,0 -1.66643,2.4864 3.16291,8.12722 2.57408,3.0066 5.31597,7.36497 6.0931,9.68528 3.24764,9.6966 11.57244,21.44773 17.74245,25.0449 2.3278,1.35712 10.85932,1.59328 10.85932,0.30058 z m 0.91691,-8.23611 c -0.0113,-1.41796 -0.83704,-4.37689 -1.83494,-6.5754 -0.99789,-2.1985 -2.09415,-5.48873 -2.43612,-7.31162 -0.34198,-1.8229 -1.25971,-3.95229 -2.03941,-4.73198 -1.04239,-1.04239 -1.18131,-1.96077 -0.52482,-3.46962 1.18587,-2.72558 0.15921,-13.04409 -1.34725,-13.5407 -0.8468,-0.27915 -1.17542,1.13067 -1.18467,5.08245 -0.007,3.00781 -0.25074,6.35508 -0.54154,7.43836 -0.29627,1.10364 0.0525,2.55083 0.79317,3.29155 0.72706,0.72705 1.59044,3.58912 1.91862,6.36015 0.59546,5.02771 2.99424,12.64387 4.68127,14.86306 1.46824,1.93139 2.53757,1.33365 2.51569,-1.40625 z m -125.28779,-7.5 c 11.64684,-7.78455 15.4745,-9.05203 27.5486,-9.12231 11.63617,-0.0678 13.05723,-0.63571 11.54462,-4.61418 -0.53479,-1.4066 -0.97234,-5.8903 -0.97234,-9.96379 0,-6.88803 -0.1963,-7.62992 -2.805,-10.60106 -1.54274,-1.7571 -5.12148,-4.19755 -7.95275,-5.42325 -2.83127,-1.22569 -5.15495,-2.5301 -5.16375,-2.89867 -0.009,-0.36858 0.82775,-1.1217 1.859,-1.67361 1.03125,-0.55191 1.875,-1.50012 1.875,-2.10714 0,-0.60703 1.06808,-1.96327 2.3735,-3.0139 3.7056,-2.98232 4.05021,-7.88257 0.92891,-13.20868 -2.53545,-4.32642 -4.57348,-5.62026 -16.63446,-10.56038 -2.1168,-0.86704 -2.53034,-1.58905 -2.43055,-4.24353 0.13312,-3.54095 -3.3148,-9.99137 -5.34065,-9.99137 -0.69455,0 -1.88297,-0.62014 -2.64092,-1.37809 -1.63382,-1.63384 -8.320449,-4.25622 -12.519972,-4.91014 -2.797306,-0.43557 -3.132693,-0.16885 -5.390625,4.28697 -1.324253,2.61328 -2.407733,5.96568 -2.407733,7.44975 0,5.35182 -6.610142,13.52818 -21.405588,26.47747 -1.202761,1.05269 -5.421511,3.60733 -9.375,5.67699 -8.446387,4.42169 -10.701074,6.36646 -13.1727,11.36206 -1.458619,2.94813 -1.636661,4.25218 -0.877774,6.42913 1.293577,3.71075 2.432227,3.43092 3.193229,-0.78477 0.349047,-1.93359 0.998772,-4.22205 1.443834,-5.08546 0.966394,-1.87479 9.880619,-8.73264 15.912217,-12.24151 l 4.311967,-2.50849 5.668382,1.71624 c 3.781551,1.14497 7.651333,3.31652 11.625532,6.52376 10.122053,8.16863 12.796176,11.29347 15.447398,18.05099 2.409112,6.14041 2.462934,6.68535 1.560647,15.80127 -0.746541,7.5425 -1.33906,9.87215 -2.945822,11.58247 -4.706426,5.00976 -1.575394,4.53298 6.742798,-1.02677 z m 61.22827,-11.71875 c -0.33069,-3.22265 -0.99023,-9.74654 -1.46564,-14.49751 -0.90965,-9.09038 -1.48122,-10.98361 -3.02744,-10.02799 -0.96385,0.59568 -0.67679,5.82295 1.14998,20.94095 1.01868,8.43047 1.33274,9.44393 2.9266,9.44393 0.68757,0 0.82269,-1.90092 0.4165,-5.85938 z m 173.18437,2.56555 c 2.85109,-1.19126 3.39574,-1.8778 3.39574,-4.28038 0,-3.56525 -1.50114,-6.48829 -3.3321,-6.48829 -1.0047,0 -1.23244,0.63224 -0.81986,2.27609 1.48719,5.92545 -2.57111,8.10791 -6.73071,3.61963 -1.88708,-2.03619 -2.51723,-2.28032 -3.16803,-1.22732 -0.4999,0.80887 -0.3054,2.29488 0.50568,3.86334 2.03416,3.93363 4.68839,4.51863 10.14928,2.23693 z m -165.58266,-7.7218 c 0.53599,-5.7494 0.1949,-20.57073 -0.53399,-23.20312 -1.39979,-5.05538 -2.52209,-2.49021 -2.36094,5.39634 0.0868,4.25076 0.19232,10.57632 0.23438,14.05678 0.0531,4.39673 0.43412,6.32813 1.24832,6.32813 0.64454,0 1.28004,-1.16016 1.41223,-2.57813 z m 15.575,-22.96875 c 0.31092,-1.16015 0.57106,-5.83593 0.5781,-10.39062 0.01,-6.21255 -0.27994,-8.18373 -1.15908,-7.89087 -0.8312,0.27689 -1.20085,3.29752 -1.27155,10.39062 -0.0947,9.50361 0.61276,12.51712 1.85253,7.89087 z m -35.96617,-4.21875 c 0.009,-1.23021 1.79417,-10.88317 2.68535,-14.52464 1.20674,-4.93081 -0.38327,-3.48436 -2.06595,1.87942 -1.85475,5.91233 -2.71509,13.34835 -1.5444,13.34835 0.50577,0 0.92202,-0.31641 0.925,-0.70313 z m 10.75174,-6.75031 c 0.78668,-1.52128 1.417,-3.52518 1.4007,-4.45313 -0.0242,-1.3792 -0.45205,-1.20702 -2.34375,0.94322 -2.31207,2.62807 -3.12621,6.27585 -1.4007,6.27585 0.50239,0 1.55708,-1.24467 2.34375,-2.76594 z m 50.10984,-10.27947 c 2.61689,-4.33903 4.75799,-8.60806 4.75799,-9.48673 0,-2.27703 8.84936,-19.25675 11.93833,-22.90668 1.42611,-1.68509 3.78081,-4.60823 5.23267,-6.49588 1.45186,-1.88764 4.29951,-4.47985 6.32812,-5.76045 5.77736,-3.64708 5.19966,-5.08104 -7.18321,-17.83032 -5.97936,-6.15631 -11.69509,-12.66984 -12.7016,-14.47453 -5.36809,-9.62504 -16.74808,-22.80373 -18.32751,-21.22431 -0.31433,0.31434 -2.37953,9.24547 -4.58933,19.84697 -2.2098,10.60151 -4.57152,20.83823 -5.24827,22.74827 -0.8589,2.42416 -1.16299,7.91835 -1.00703,18.19495 0.21865,14.40706 0.16347,14.87189 -2.57812,21.71868 -2.74732,6.8611 -3.45392,11.35998 -2.08407,13.26912 0.37882,0.52795 3.43096,3.11847 6.78252,5.7567 3.35156,2.63824 6.91191,5.70275 7.91187,6.81003 l 1.81812,2.01324 2.09577,-2.14495 c 1.15266,-1.17972 4.23685,-5.69507 6.85375,-10.03411 z m 21.98602,-11.79834 c 1.91992,-3.09375 4.57841,-6.99609 5.90776,-8.67188 1.70061,-2.14378 2.0191,-3.04687 1.07452,-3.04687 -0.73838,0 -2.66759,1.37109 -4.28714,3.04687 -3.49418,3.61547 -10.75374,16.48707 -9.99295,17.71804 0.62428,1.0101 2.50005,-1.31505 7.29781,-9.04616 z m 5.01668,2.51881 c 1.66428,-2.45526 3.82206,-5.31862 4.79506,-6.36302 0.97301,-1.04439 2.26289,-2.82156 2.86641,-3.94923 1.79079,-3.34612 -0.95163,-2.54212 -3.43879,1.00817 -1.16951,1.6694 -3.80411,5.14464 -5.85466,7.72277 -3.96582,4.98615 -4.44017,6.10824 -2.56586,6.06957 0.64454,-0.0133 2.53356,-2.03301 4.19784,-4.48826 z m -80.52519,-0.11854 c 0.21285,-1.4543 -0.0877,-2.00823 -0.9375,-1.72813 -0.68792,0.22673 -1.39174,1.37539 -1.56404,2.55259 -0.21285,1.4543 0.0877,2.00823 0.9375,1.72813 0.68792,-0.22673 1.39174,-1.37539 1.56404,-2.55259 z m 94.40042,-21.80154 c 1.352,-0.616 3.11368,-2.38763 3.91486,-3.93693 l 1.45669,-2.81693 -2.52079,1.65169 c -1.38643,0.90842 -4.25527,1.94778 -6.3752,2.30968 -4.09089,0.69837 -5.70658,2.52403 -2.88176,3.25628 2.92117,0.75722 3.8785,0.68792 6.4062,-0.46379 z M 193.125,325.01852 c 0,-1.70857 0.64606,-7.93122 1.43568,-13.82813 2.03362,-15.18707 2.02344,-28.08701 -0.0205,-26.04302 -1.22229,1.2223 -4.80553,39.18188 -3.91716,41.49695 0.99064,2.58163 2.50201,1.59955 2.50201,-1.6258 z m -18.0615,-11.65915 c 6.47207,-14.55161 10.72967,-31.07168 7.75207,-30.07915 -0.99139,0.33047 -13.07339,33.21985 -13.116,35.70415 -0.007,0.38672 0.56426,0.70313 1.26866,0.70313 0.7044,0 2.54727,-2.84766 4.09527,-6.32813 z m 41.499,4.62014 c 0,-0.42377 -0.5822,-2.63862 -1.29378,-4.92188 -0.71157,-2.28326 -1.99543,-7.52638 -2.85302,-11.65138 -2.43137,-11.69497 -3.52431,-15.46875 -4.48,-15.46875 -2.38516,0 2.913,27.79536 6.03112,31.64062 1.07584,1.32675 2.59568,1.56176 2.59568,0.40139 z m 8.88697,-25.353 c -5.00607,-9.95884 -6.22718,-11.52978 -7.43859,-9.56969 -0.85466,1.38288 2.8548,9.83516 6.69523,15.25556 7.23532,10.21194 7.54482,7.8446 0.74336,-5.68587 z m -55.59143,-2.19748 c 1.19527,-1.65465 3.46667,-5.13511 5.04756,-7.73437 2.402,-3.94929 3.32637,-4.72591 5.625,-4.72591 4.62032,0 3.45106,-1.75063 -2.85691,-4.27742 -5.91023,-2.36745 -16.74337,-9.27114 -18.972,-12.09037 -1.79912,-2.2759 -1.38267,0.12199 0.58024,3.34101 0.9762,1.6009 3.4004,3.8964 5.38711,5.10111 1.98672,1.2047 4.97963,3.21168 6.65092,4.45994 l 3.03872,2.26957 -4.2106,7.72442 c -2.31582,4.24843 -4.21058,7.99804 -4.21058,8.33246 0,1.52746 1.94213,0.33834 3.92054,-2.40044 z m -20.67511,-5.96623 c 2.88909,-5.29082 4.41554,-11.6503 2.7964,-11.6503 -0.57301,0 -1.04443,0.52734 -1.04761,1.17187 -0.003,0.64454 -0.67512,2.4375 -1.49322,3.98438 -0.81809,1.54687 -2.30092,4.85452 -3.29517,7.35032 -2.37528,5.96248 -0.37632,5.39937 3.0396,-0.85627 z m 7.37957,2.6208 c 0,-0.91653 0.56987,-2.49856 1.26637,-3.51562 1.73823,-2.53824 2.74694,-7.00548 1.58185,-7.00548 -0.51563,0 -1.19243,1.16016 -1.504,2.57812 -0.31159,1.41797 -1.15996,4.16016 -1.88528,6.09375 -0.77396,2.06327 -0.9346,3.51563 -0.38885,3.51563 0.51145,0 0.92991,-0.74988 0.92991,-1.6664 z m 42.89062,-17.6745 c 3.88345,-1.04072 2.16423,-2.2216 -3.23437,-2.2216 -6.19845,0 -5.86788,1.3555 0.65625,2.69094 0.25781,0.0528 1.41797,-0.15842 2.57812,-0.46934 z m 69.06092,-0.21763 c 0.27483,-0.44468 0.97552,-6.87828 1.55709,-14.29687 0.58156,-7.41859 1.45241,-14.22904 1.93522,-15.13432 0.68187,-1.27851 1.65469,-1.53283 4.35762,-1.13917 3.76719,0.54865 5.5193,-0.16262 5.8409,-2.37111 0.4961,-3.40673 -0.18213,-4.59647 -3.18526,-5.58758 -5.78369,-1.90879 -6.65639,-3.76097 -6.36592,-13.51067 0.22656,-7.60451 0.0351,-8.84815 -1.5888,-10.31772 -1.41722,-1.28256 -2.26735,-1.4457 -3.65728,-0.70183 -1.41858,0.7592 -2.07414,2.80584 -3.02611,9.44749 -0.66838,4.66309 -1.68156,8.86289 -2.2515,9.33289 -0.62695,0.51701 -2.97668,0.46954 -5.94894,-0.12018 -3.74713,-0.74347 -5.24852,-0.69602 -6.32812,0.19998 -3.43226,2.84852 -0.49398,6.68972 6.08456,7.95434 7.48489,1.43885 6.89268,-0.34999 6.13582,18.53383 -0.72449,18.0765 -0.6411,18.47345 3.88697,18.5051 1.12973,0.007 2.27892,-0.34948 2.55375,-0.79418 z m -61.55288,-30.85619 c 0.24242,-0.72726 -0.5906,-1.14252 -2.27366,-1.13343 -3.16587,0.0171 -5.46508,1.2872 -4.66721,2.57817 0.75443,1.22069 6.44739,0.0357 6.94087,-1.44474 z m 1.28627,-9.1922 c 0.71314,-0.44074 0.68675,-0.83048 -0.0887,-1.30975 -1.48317,-0.91664 -8.34719,0.3991 -9.71849,1.86292 -0.87127,0.93003 -0.0809,1.05786 3.84773,0.62237 2.71933,-0.30144 5.40108,-0.83043 5.95948,-1.17554 z M 193.125,219.63411 c 0,-0.88891 -0.53948,-1.1902 -1.48293,-0.82816 -0.8156,0.31298 -2.71404,0.56905 -4.21875,0.56905 -3.46866,0 -3.59443,1.64606 -0.1577,2.06393 3.7256,0.453 5.85938,-0.20425 5.85938,-1.80482 z m 7.3125,-32.32161 c 0.61875,-0.61875 1.125,-1.8941 1.125,-2.83411 0,-1.56193 -0.18347,-1.5889 -2.13039,-0.31323 -3.00256,1.96736 -5.9044,0.8834 -8.28274,-3.09394 -1.20627,-2.01725 -2.2166,-2.91886 -2.4685,-2.20287 -0.6817,1.93766 0.58603,5.71105 2.59298,7.718 2.07665,2.07665 7.39195,2.49785 9.16365,0.72615 z m -59.20458,-6.43273 c 6.05139,-3.16614 8.52353,-5.18583 7.54512,-6.16422 -0.71575,-0.71577 -15.34417,5.77741 -17.49456,7.76537 -2.71304,2.50813 4.23144,1.39056 9.94944,-1.60115 z m 17.35714,0.2921 c 1.48233,-3.66175 1.72415,-21.79687 0.29065,-21.79687 -0.71757,0 -1.3063,2.86732 -1.68431,8.20312 C 156.50416,177.34954 155.84548,180 154.10941,180 c -0.7133,0 -1.29691,0.42187 -1.29691,0.9375 0,0.51562 0.63281,0.9375 1.40625,0.9375 0.77344,0 1.40625,0.42187 1.40625,0.9375 0,1.9281 1.95925,0.844 2.96506,-1.64063 z m -25.46812,-6.84554 c 10.12937,-3.28323 15.94056,-6.27003 15.94056,-8.19301 0,-0.89886 -0.5351,-1.11692 -1.64063,-0.6686 -0.90234,0.36593 -3.91501,1.46352 -6.69482,2.43908 -2.77982,0.97557 -5.52201,2.14206 -6.09375,2.59219 -0.57176,0.45012 -3.35986,1.53979 -6.1958,2.42146 -2.83594,0.88168 -5.71033,1.77827 -6.38754,1.99243 -1.45268,0.45939 -0.58232,2.27762 1.09024,2.27762 0.63501,0 5.12679,-1.28753 9.98174,-2.86117 z m 127.96719,-1.82458 c 3.19606,-1.21514 2.08794,-3.20899 -1.26953,-2.28428 -2.5079,0.69071 -5.02318,1.00501 -9.79681,1.22414 -1.49356,0.0685 -2.38265,0.52669 -2.05404,1.05839 0.74975,1.21312 9.93104,1.21434 13.12038,0.002 z m 21.09837,-1.81292 c 0,-1.54057 -5.36175,-4.75133 -7.93443,-4.75133 -2.99954,0 -2.41481,1.30817 1.7086,3.82248 3.13458,1.91136 6.22583,2.37257 6.22583,0.92885 z m -151.2826,-6.0606 c 7.27608,-1.80971 13.4701,-4.27213 13.4701,-5.35502 0,-1.24303 -0.72973,-1.12556 -15.72474,2.53139 -16.95301,4.13446 -16.37113,3.95456 -15.7968,4.88385 0.59108,0.9564 10.4441,-0.16813 18.05144,-2.06022 z m 70.57992,-1.54937 c 1.24559,-5.808 1.29288,-9.04658 0.14246,-9.75757 -1.31026,-0.80979 -1.63717,0.26324 -2.34416,7.69433 -0.75603,7.94647 0.65616,9.26984 2.2017,2.06324 z m -9.37071,0.70792 c 1.24057,-3.26293 1.60319,-10.47004 0.54214,-10.77488 -0.51562,-0.14815 -1.20263,1.32842 -1.52669,3.28125 -0.32406,1.95283 -0.90413,4.92169 -1.28906,6.59747 -0.82524,3.59265 0.97816,4.30346 2.27361,0.89616 z m 98.97964,0.42219 c 0,-1.41205 -8.34038,-6.98035 -8.7285,-5.82742 -0.38267,1.13676 6.57927,7.58518 7.791,7.21632 0.51562,-0.15695 0.9375,-0.78196 0.9375,-1.3889 z M 188.0192,159.90458 c 0.74561,-3.97449 -0.58596,-6.82353 -1.55758,-3.33263 -0.97586,3.50605 -0.9487,6.55305 0.0584,6.55305 0.49225,0 1.16689,-1.44919 1.49918,-3.22042 z m 68.51677,1.81417 c 0.29681,-0.77344 0.26086,-2.13271 -0.0799,-3.0206 -0.53067,-1.38292 -0.74459,-1.41652 -1.49219,-0.23437 -1.17296,1.85472 -1.13352,4.66122 0.0655,4.66122 0.53181,0 1.20976,-0.63281 1.50655,-1.40625 z m -7.67314,-0.39849 c 0.29479,-0.47699 0.004,-2.03606 -0.64743,-3.46458 l -1.18342,-2.59733 -0.53625,2.76145 c -0.29494,1.51879 -0.37566,3.07786 -0.17941,3.46457 0.49322,0.97186 1.90049,0.88116 2.54651,-0.16411 z m 32.77259,-7.64219 c 2.29712,-2.73 3.07198,-4.61557 1.8967,-4.61557 -1.9904,0 -8.84462,5.21231 -8.84462,6.72592 0,1.97955 4.71035,0.54884 6.94792,-2.11035 z m 19.30208,1.60882 c 0,-1.26 -10.19286,-4.78154 -11.12932,-3.84507 -0.94043,0.94043 1.76132,2.60162 6.15038,3.78159 2.48061,0.6669 4.61566,1.24101 4.74457,1.27582 0.1289,0.0348 0.23437,-0.51075 0.23437,-1.21234 z m -167.55269,-3.09186 c 5.28504,-1.48214 7.09032,-2.6574 5.90408,-3.84363 -0.32249,-0.3225 -4.47801,0.12492 -9.23449,0.99425 -4.75648,0.86934 -11.70795,2.04334 -15.44773,2.60889 -3.73976,0.56555 -6.59666,1.35658 -6.34867,1.75784 0.75602,1.22327 19.36034,0.0998 25.12681,-1.51735 z m 42.24675,-3.09029 c 3.78533,-4.18992 6.83884,-9.70558 7.2934,-13.17438 0.5623,-4.29096 -1.30746,-3.33378 -2.87387,1.4712 -1.62457,4.98341 -4.14071,9.05001 -7.44991,12.04062 -1.0869,0.98225 -1.97618,2.14241 -1.97618,2.57812 0,1.68601 1.79225,0.6423 5.00656,-2.91556 z m -21.12335,-3.26137 c -1.19045,-1.84851 -9.1254,-10.22223 -17.63321,-18.60827 -15.39228,-15.17197 -25.38798,-25.99105 -28.55482,-30.906975 -1.38131,-2.144231 -4.25768,-3.610498 -4.25768,-2.170406 0,3.917953 15.25898,22.329631 28.78486,34.732191 5.05114,4.63164 12.34795,11.73187 16.21514,15.77827 4.53542,4.74562 7.134,6.85644 7.32071,5.94661 0.15921,-0.77578 -0.68454,-2.92292 -1.875,-4.77142 z m 103.11293,4.85596 c 0.53664,-0.64662 1.53752,-3.01649 2.22416,-5.26639 0.68665,-2.2499 1.88126,-4.32575 2.6547,-4.61301 0.77344,-0.28726 1.74362,-1.08144 2.15596,-1.76486 0.41234,-0.68341 1.71805,-1.24257 2.90157,-1.24257 3.19239,0 4.95279,-2.59005 6.23815,-9.17806 0.71745,-3.67728 1.80053,-6.35211 2.87748,-7.10643 2.19913,-1.54034 4.57684,-7.18889 4.57684,-10.8729 0,-2.1442 0.42755,-2.84261 1.74019,-2.84261 2.71194,0 10.44731,-6.35097 10.44731,-8.577563 0,-1.762321 -0.28662,-1.677515 -3.31388,0.980443 -1.82262,1.60029 -3.82652,2.91172 -4.45312,2.91428 -2.28918,0.009 -6.04727,4.31447 -7.11984,8.15621 -0.60534,2.16818 -2.15849,5.19935 -3.45146,6.73595 -1.49855,1.78094 -2.90883,5.36507 -3.8899,9.886 -1.53816,7.08802 -1.54088,7.09218 -4.63363,7.09218 -2.60173,0 -3.69527,0.75994 -6.86637,4.77169 -2.07449,2.62443 -3.7718,5.59079 -3.7718,6.59192 0,2.7355 -2.00512,2.99395 -7.86904,1.01431 -4.44377,-1.50021 -5.91429,-2.61057 -9.07171,-6.84981 -4.33168,-5.81584 -5.55925,-6.58231 -5.55925,-3.47109 0,2.65751 2.42973,6.38048 4.16408,6.38048 0.6849,0 1.89825,0.99657 2.69634,2.21461 3.07037,4.68596 14.78933,8.10036 17.32322,5.04722 z m 52.17573,-3.42671 c -0.98778,-0.94538 -10.32276,-3.83512 -12.3889,-3.83512 -2.8196,0 -0.33377,2.34574 3.59829,3.39548 5.13445,1.37077 10.01875,1.61504 8.79061,0.43964 z m -189.16158,-2.02606 c 4.0334,-0.5519 7.95121,-1.60659 8.70623,-2.34375 1.19825,-1.16992 1.04366,-1.34031 -1.21588,-1.34031 -2.87975,0 -24.30728,3.70066 -24.92252,4.30426 -0.77023,0.75567 10.23959,0.36396 17.43217,-0.6202 z m 168.13394,-4.4962 c 4.45935,-2.71189 9.57869,-10.56397 6.77764,-10.3956 -1.57429,0.0946 -11.61901,10.23144 -11.05031,11.15162 0.80677,1.30537 0.91426,1.28635 4.27267,-0.75602 z m 25.0235,-1.65848 c 0.19656,-0.59042 -1.02122,-1.30116 -2.73481,-1.59613 -1.69905,-0.29247 -4.46026,-0.81061 -6.13605,-1.15141 -4.7778,-0.97167 -3.67851,1.16438 1.40625,2.7325 5.03697,1.55338 6.95117,1.55723 7.46461,0.015 z M 105,134.52662 c 3.04493,-1.0388 5.19246,-4.21412 2.85008,-4.21412 -1.51429,0 -10.111542,4.48057 -10.831036,5.64475 -0.659981,1.06787 2.115834,0.57029 7.980956,-1.43063 z m 214.27394,-3.77518 c -1.00089,-0.75704 -2.68839,-1.3822 -3.75,-1.38924 -1.06161,-0.007 -2.87941,-0.26718 -4.03957,-0.5781 -1.19128,-0.31924 -2.10937,-0.14366 -2.10937,0.40344 0,1.31838 4.4397,2.84228 8.4375,2.89613 3.08347,0.0415 3.17156,-0.0387 1.46144,-1.33223 z m -125.57989,-1.84519 c -0.31298,-0.77344 -0.83128,-2.05509 -1.15177,-2.84813 -0.45459,-1.12481 0.13763,-1.01685 2.69314,0.49093 2.47685,1.46138 3.82449,1.72421 5.52523,1.0776 3.28613,-1.24939 9.86594,-6.99123 14.08778,-12.29365 l 3.68092,-4.62303 -3.79592,-1.93654 c -2.08777,-1.0651 -3.79593,-2.37827 -3.79593,-2.91816 0,-0.53989 -0.77746,-0.73487 -1.72769,-0.43327 -5.84875,1.85632 -10.92084,-11.388912 -7.13864,-18.641844 1.29831,-2.489723 2.40074,-6.084161 3.90053,-12.717656 0.71716,-3.171916 2.04246,-4.6875 4.09898,-4.6875 2.95369,0 6.49182,-2.102591 6.49182,-3.857869 0,-3.81681 10.97397,-10.759775 15.33617,-9.702823 1.10417,0.267538 3.95387,0.624717 6.33266,0.793732 4.50949,0.320401 14.77994,4.875721 15.57387,6.907585 0.68386,1.750159 4.79821,1.415394 8.16304,-0.664186 3.31651,-2.049714 7.27896,-1.647116 6.87497,0.698521 -0.16155,0.937959 0.81666,1.731471 2.77578,2.251661 1.66387,0.441801 3.49843,1.687455 4.07678,2.768121 0.87395,1.63299 1.66808,1.882155 4.7018,1.475246 3.33611,-0.447466 3.88148,-0.194811 6.33725,2.935831 1.47784,1.883987 3.21542,5.65984 3.86128,8.390785 1.14596,4.845606 2.94892,6.117823 3.63729,2.56657 0.17993,-0.928237 1.44556,-2.712798 2.8125,-3.965692 4.2415,-3.887607 17.92468,-12.629612 26.81118,-17.129307 8.84263,-4.477481 22.08043,-12.935546 22.08043,-14.107908 0,-0.372427 -3.90234,-0.649999 -8.67188,-0.616826 -4.76953,0.03317 -10.89999,-0.489232 -13.62326,-1.1609 -3.9134,-0.965208 -6.17351,-0.99118 -10.78125,-0.123895 -6.29543,1.184949 -9.89603,0.692298 -20.88349,-2.857383 -6.56257,-2.120145 -10.3898,-2.408258 -19.16512,-1.442749 -7.85446,0.864193 -16.94407,-0.465042 -24.48188,-3.580147 -7.91017,-3.268982 -17.39016,-4.065684 -24.2039,-2.034103 -6.90876,2.059909 -10.50385,1.919036 -21.06705,-0.825514 -10.25535,-2.664562 -16.13246,-2.963631 -18.9844,-0.966057 -1.08181,0.757731 -2.87341,3.306147 -3.98133,5.663147 -2.48572,5.288132 -3.85718,5.870808 -7.91517,3.36283 -1.74974,-1.081393 -3.44673,-1.96617 -3.7711,-1.96617 -0.96588,0 -8.09517,6.709681 -8.09517,7.618704 0,0.460914 -1.46237,2.918558 -3.24971,5.461431 -1.78735,2.542873 -3.54595,5.808078 -3.90801,7.25601 -1.0006,4.001597 -4.92636,12.517875 -6.96516,15.109804 -3.49052,4.437482 -2.55409,6.060441 5.91975,10.259702 4.25391,2.108044 9.21094,4.448799 11.01563,5.201676 1.80469,0.752879 6.02344,3.503373 9.375,6.11221 11.38955,8.865553 16.875,15.662283 16.875,20.908873 l 0,2.17629 -1.37674,-1.96558 c -1.67599,-2.39279 -10.83733,-6.27672 -19.71701,-8.35895 C 160.6807,110.18539 157.5,108.45304 157.5,106.09572 c 0,-0.92044 -1.71856,-2.91463 -3.81902,-4.4315 -9.43457,-6.813333 -13.32465,-10.145372 -13.7519,-11.779155 -0.56318,-2.153634 -1.41486,-2.183131 -6.53836,-0.226448 -5.2143,1.991356 -5.32679,4.091383 -0.21916,4.091383 6.00379,0 9.30377,2.096541 19.18321,12.1875 1.26204,1.28906 3.27769,3.55862 4.47923,5.04346 1.52809,1.88838 3.43557,2.91935 6.34718,3.43056 2.28942,0.40197 6.89782,1.21608 10.2409,1.80915 3.43628,0.6096 7.30754,2.00095 8.90625,3.20096 1.55536,1.16746 3.57253,2.39719 4.48262,2.73274 0.91007,0.33555 2.09463,1.76722 2.63235,3.1815 1.17899,3.10099 2.64765,4.97663 3.89679,4.97663 0.50766,0 0.66694,-0.63281 0.35396,-1.40625 z m 99.91167,-0.26276 c 3.06625,-2.02223 8.26928,-8.42663 8.26928,-10.17865 0,-2.04031 -1.69793,-1.48161 -3.40223,1.11948 -0.86375,1.31825 -3.40473,3.65883 -5.64661,5.20129 -5.95107,4.09444 -5.20176,7.8026 0.77956,3.85788 z M 93.324531,128.35015 c 3.049138,-0.56366 6.712559,-1.62917 8.140939,-2.36782 3.15448,-1.63125 3.51573,-3.66727 0.48765,-2.74849 -1.16015,0.35201 -6.266508,1.21852 -11.347458,1.92556 -9.253107,1.28762 -11.384688,1.93427 -8.94297,2.713 0.718332,0.2291 1.93887,0.6276 2.712308,0.88556 2.180728,0.72732 3.014648,0.68932 8.949531,-0.40781 z m 239.407399,-5.19341 c 5.82024,-1.16405 2.18135,-2.46402 -7.92799,-2.83223 -5.64998,-0.20579 -11.07104,-0.46846 -12.04679,-0.58372 -2.59672,-0.3067 -2.84559,1.65638 -0.36171,2.8532 2.35029,1.13245 15.64808,1.50043 20.33649,0.56275 z M 97.03125,119.0625 c 0,-1.13365 -1.327838,-1.38084 -6.849825,-1.27518 -7.171695,0.13724 -8.286586,0.47505 -7.226834,2.18977 0.400712,0.64836 3.169149,0.93633 7.359501,0.76549 5.224105,-0.21296 6.717158,-0.5864 6.717158,-1.68008 z m -17.933263,-1.94368 c -1.566001,-1.566 -2.608401,-1.81898 -5.364584,-1.30192 -6.069999,1.13875 -3.836486,2.52416 4.990555,3.09556 l 2.317708,0.15004 -1.943679,-1.94368 z m 220.864673,-3.33964 c 2.2764,-1.3447 5.66234,-5.69988 5.66234,-7.2832 0,-1.62961 -3.00808,-0.21745 -3.95261,1.85558 -0.60496,1.32773 -2.28341,3.02607 -3.72991,3.77408 -2.62606,1.35799 -3.54585,3.18686 -1.60275,3.18686 0.56497,0 2.19529,-0.68999 3.62293,-1.53332 z m 42.92772,-1.41966 c 6.81193,-2.104 13.71689,-6.02299 12.9106,-7.32758 -0.28498,-0.46112 -3.35913,0.46462 -6.83144,2.05719 -5.8626,2.68888 -7.29759,2.93566 -20.10139,3.45696 -14.94962,0.60866 -19.26377,1.95605 -11.86926,3.70698 5.64079,1.33567 18.47548,0.39701 25.89149,-1.89355 z m -109.96574,-3.76001 c 3.32581,-1.51534 3.18638,-3.9012 -0.19027,-3.25543 -1.41796,0.27118 -4.37109,0.76366 -6.5625,1.09439 -3.81954,0.57646 -4.71078,1.27262 -3.35937,2.62403 1.01324,1.01324 7.5267,0.71502 10.11214,-0.46299 z M 96.328903,107.57813 c -0.214416,-0.64454 -2.873301,-1.48467 -5.908641,-1.86696 -8.971853,-1.12999 -17.284075,-4.02785 -31.616483,-11.02232 -4.52511,-2.208337 -8.504797,-3.737832 -8.843751,-3.398879 -0.338953,0.338954 -0.222528,0.994024 0.258722,1.455711 2.024447,1.942155 15.594564,8.583958 22.038111,10.786398 3.829039,1.30879 8.649389,2.99972 10.711889,3.75762 4.779447,1.75629 13.914066,1.95349 13.360153,0.28842 z m 240.241807,-4.04171 c 8.20507,-1.55647 23.71647,-7.174414 27.3257,-9.896858 3.50815,-2.646201 1.14789,-3.212612 -3.56953,-0.856613 -6.02891,3.010979 -19.59862,6.961698 -31.03001,9.034151 -5.28515,0.95817 -9.60937,2.0663 -9.60937,2.46252 0,1.19489 8.68093,0.81275 16.88321,-0.7432 z m -90.42395,-2.30658 c 1.7834,-0.67804 2.89254,-0.64747 3.79885,0.10469 1.35801,1.12705 5.99189,0.42382 5.99189,-0.90931 0,-1.204336 -9.38071,-2.050636 -11.30641,-1.020033 -0.93243,0.499022 -2.56681,0.907313 -3.63196,0.907313 -1.06515,0 -1.93663,0.42188 -1.93663,0.9375 0,1.21422 3.86653,1.20323 7.08426,-0.0202 z m 22.37031,0.38861 c 2.701,-1.03647 1.54085,-2.050044 -2.73582,-2.390178 -3.92646,-0.312281 -5.32916,0.598809 -3.59375,2.334228 0.78055,0.78055 4.35888,0.81217 6.32957,0.056 z m 35.92041,-1.27423 c 2.19965,-2.049286 3.57658,-5.456545 2.59867,-6.430495 -0.34928,-0.347861 -1.46512,0.422213 -2.47965,1.711275 -1.01453,1.289063 -2.45478,3.08685 -3.20055,3.995091 C 300.61018,100.52833 300,101.47755 300,101.72947 c 0,1.11759 2.63337,0.29553 4.43748,-1.38525 z M 94.6875,95.642859 c 0,-0.5058 -0.949219,-1.138968 -2.109375,-1.407037 C 91.417969,93.967753 87.545467,93.089209 83.972566,92.283507 71.262411,89.417324 60.296926,84.423259 51.386582,77.44271 44.204206,71.815887 40.265696,69.234352 39.336219,69.544177 38.087337,69.960471 41.82514,75 43.382787,75 c 0.58256,0 2.431928,1.330501 4.109707,2.956668 6.056429,5.870122 21.949797,14.099437 31.448829,16.283673 3.76196,0.865031 7.261802,1.708087 7.777427,1.873462 2.214925,0.710363 7.96875,0.370322 7.96875,-0.470944 z m 184.58888,-0.367781 c 0.58766,-0.708084 0.7824,-2.032898 0.43277,-2.944032 -0.60311,-1.571665 -0.70008,-1.568571 -1.89118,0.06036 -2.32775,3.183402 -0.98833,5.831812 1.45841,2.883674 z m 57.30641,-2.380021 c 12.85187,-3.792934 25.94363,-9.510061 34.90158,-15.241391 4.22525,-2.703327 5.62582,-4.528666 3.47481,-4.528666 -0.53808,0 -5.57275,2.507459 -11.18817,5.572131 -11.10754,6.062047 -21.52231,10.590991 -28.14601,12.239503 -6.8232,1.698164 -7.5,1.957744 -7.5,2.876544 0,1.270481 1.64824,1.09156 8.45779,-0.918121 z m -8.92654,-5.552495 c 2.57812,-1.057727 5.32031,-2.166562 6.09375,-2.464077 0.77344,-0.297515 3.09375,-1.538808 5.15625,-2.758428 2.0625,-1.21962 7.43777,-4.02161 11.94504,-6.226647 4.50728,-2.205036 8.9284,-4.819503 9.82472,-5.809928 0.89632,-0.990424 2.95221,-2.353362 4.56865,-3.028753 1.61643,-0.67539 4.36719,-2.538931 6.11279,-4.141202 1.74558,-1.60227 5.42627,-4.904652 8.17929,-7.338625 2.75303,-2.433975 4.54403,-4.579227 3.98003,-4.767226 -0.564,-0.188001 -3.21616,1.803362 -5.89371,4.425252 C 374.94552,57.854817 372.38777,60 371.93917,60 c -0.4486,0 -3.08217,1.846308 -5.85238,4.102905 -4.57125,3.723716 -11.29367,7.431884 -22.96179,12.665996 -2.32031,1.040851 -5.27344,2.517644 -6.5625,3.281763 -3.17664,1.883019 -8.54701,4.324336 -9.51261,4.324336 -2.08322,0 -8.29989,3.407379 -8.29989,4.549197 0,1.550551 2.24245,1.152321 8.90625,-1.581635 z M 112.53012,79.049836 c 2.96143,-4.171104 3.27936,-4.987336 1.94261,-4.987336 -0.46187,0 -2.15419,2.048352 -3.76071,4.551892 -1.60652,2.503542 -3.75987,5.311114 -4.78524,6.239052 -1.02535,0.927936 -1.85293,2.360054 -1.83906,3.182482 0.0275,1.629933 3.62023,-2.194182 8.4424,-8.98609 z M 95.625,86.813864 c 0,-0.792616 -2.873371,-2.312361 -7.265625,-3.842838 C 84.363281,81.578591 77.679008,78.805736 73.505435,76.809128 65.961695,73.200254 47.245622,61.227655 43.077627,57.344578 41.877979,56.226936 40.625708,55.3125 40.294805,55.3125 c -0.330904,0 -2.466199,-1.704829 -4.745099,-3.788508 -2.278901,-2.083679 -4.987206,-4.264005 -6.018456,-4.845168 -2.666726,-1.502838 3.942993,5.910103 6.961151,7.807082 1.327617,0.834436 4.224581,3.260217 6.437699,5.390625 2.213117,2.130408 4.216047,3.873469 4.450955,3.873469 0.785881,0 10.240783,6.85634 13.087695,9.490703 2.817232,2.6069 16.862722,10.185104 18.891284,10.192738 0.593332,0.0023 3.335519,1.054625 6.09375,2.338651 5.612506,2.612761 10.171216,3.07968 10.171216,1.041772 z m 5.625,-7.155787 c 0,-0.531808 -0.73828,-1.19506 -1.640625,-1.473892 C 98.707031,77.905352 97.335937,77.297942 96.5625,76.834383 95.789062,76.370825 91.78125,74.360786 87.65625,72.36763 83.53125,70.374475 77.061609,66.670908 73.279271,64.137481 69.496933,61.604054 64.973843,58.664024 63.22796,57.604082 61.482076,56.544139 56.79407,52.747264 52.810168,49.166582 48.826266,45.585899 43.900774,41.448634 41.864631,39.972658 36.824773,36.319328 30,29.185192 30,27.57021 30,26.844095 29.578125,26.25 29.0625,26.25 c -4.250781,0 7.284605,13.438137 23.4375,27.303498 9.474491,8.132735 20.993738,15.604012 33.28125,21.58591 10.761169,5.238831 15.46875,6.61399 15.46875,4.518669 z M 340.43422,72.2763 c 3.80024,-2.154305 9.44078,-5.788949 12.53453,-8.076987 3.09375,-2.288038 8.15407,-5.930162 11.24516,-8.093608 13.12191,-9.183999 26.34602,-22.108271 24.50496,-23.949338 -0.28948,-0.289476 -2.75636,1.799443 -5.48198,4.642044 -5.85119,6.102347 -29.58294,24.166881 -38.80239,29.536256 -3.55616,2.071097 -9.31341,5.052544 -12.79388,6.625437 -3.48046,1.572893 -6.32812,3.152066 -6.32812,3.509274 0,1.799391 8.90828,-0.670776 15.12172,-4.193078 z M 36.5625,67.03125 C 35.920604,66.257812 34.973542,65.625 34.457917,65.625 c -0.522963,0 -0.421448,0.621806 0.229583,1.40625 0.641896,0.773437 1.588958,1.40625 2.104583,1.40625 0.522963,0 0.421448,-0.621806 -0.229583,-1.40625 z M 358.59375,47.8125 c -0.31867,-0.515625 -2.03107,-0.9375 -3.80533,-0.9375 -1.77426,0 -3.22592,0.421875 -3.22592,0.9375 0,0.515625 1.7124,0.9375 3.80533,0.9375 2.29815,0 3.57584,-0.371315 3.22592,-0.9375 z"
     id="path4166"
     inkscape:connector-curvature="0" />
</svg>
